<svg id="svg" version="1.1" width="400" height="400" viewBox="0 0 400 400" xmlns="http://www.w3.org/2000/svg" xmlns:xlink="http://www.w3.org/1999/xlink" ><g id="svgg"><path id="path0" d="" stroke="none" fill="#4a194a" fill-rule="evenodd"></path><path id="path1" d="M97.462 135.957 C 94.865 137.254,95.076 130.317,95.179 210.998 L 95.271 283.080 96.196 286.564 C 100.879 304.207,113.881 316.336,131.735 319.714 C 136.560 320.627,203.314 320.620,204.986 319.707 C 207.850 318.142,207.897 312.888,205.063 311.213 C 204.213 310.711,201.058 310.660,171.014 310.659 C 148.952 310.658,136.885 310.533,134.856 310.285 C 120.886 308.573,109.827 299.100,105.863 285.448 L 105.077 282.741 104.907 210.600 L 104.738 138.459 104.037 137.504 C 103.139 136.279,101.341 135.365,99.831 135.365 C 99.179 135.365,98.113 135.631,97.462 135.957 " stroke="none" fill="#551c4c" fill-rule="evenodd"></path><path id="path2" d="" stroke="none" fill="#04a69d" fill-rule="evenodd"></path><path id="path3" d="M97.065 81.148 C 95.026 83.094,94.563 85.017,95.705 86.802 C 96.552 88.125,196.445 192.879,197.598 193.653 C 199.243 194.756,203.085 194.072,204.091 192.496 C 204.200 192.325,205.583 190.859,207.163 189.239 C 208.744 187.620,216.176 179.822,223.679 171.912 C 231.183 164.002,238.565 156.235,240.084 154.653 C 241.602 153.071,246.022 148.426,249.904 144.332 C 253.787 140.237,258.204 135.592,259.720 134.010 C 261.236 132.428,265.657 127.783,269.545 123.689 C 285.605 106.773,289.303 102.893,292.288 99.831 L 295.423 96.616 295.428 206.768 C 295.434 316.650,295.436 316.923,296.117 318.041 C 297.829 320.848,302.650 320.751,304.018 317.882 C 304.868 316.101,304.865 83.806,304.015 82.016 C 303.344 80.602,302.026 79.865,300.169 79.865 C 297.682 79.865,298.390 79.240,285.796 92.555 C 282.099 96.464,277.834 100.956,276.318 102.538 C 274.803 104.120,270.539 108.613,266.843 112.521 C 263.147 116.430,258.883 120.922,257.368 122.504 C 255.852 124.086,251.588 128.579,247.892 132.487 C 244.196 136.396,239.932 140.888,238.417 142.470 C 236.901 144.052,232.632 148.545,228.931 152.453 C 225.230 156.362,219.519 162.377,216.241 165.821 C 212.963 169.264,208.011 174.484,205.237 177.420 L 200.193 182.759 198.281 180.804 C 197.230 179.729,190.079 172.225,182.391 164.129 C 174.703 156.032,167.020 147.961,165.317 146.193 C 163.614 144.425,160.667 141.345,158.767 139.348 C 152.257 132.506,148.542 128.608,145.220 125.135 C 143.391 123.223,132.963 112.271,122.045 100.797 C 111.128 89.323,101.955 79.843,101.662 79.731 C 100.071 79.120,98.771 79.521,97.065 81.148 " stroke="none" fill="#09a89e" fill-rule="evenodd"></path><path id="path4" d="M131.303 124.641 C 131.303 124.699,131.798 125.194,132.403 125.740 L 133.503 126.734 132.509 125.635 C 131.582 124.609,131.303 124.379,131.303 124.641 M145.178 139.192 C 145.178 139.250,145.673 139.745,146.277 140.292 L 147.377 141.286 146.383 140.186 C 145.457 139.161,145.178 138.931,145.178 139.192 M159.052 153.744 C 159.052 153.802,159.547 154.297,160.152 154.844 L 161.252 155.838 160.258 154.738 C 159.332 153.713,159.052 153.482,159.052 153.744 M172.927 168.295 C 172.927 168.354,173.422 168.849,174.027 169.395 L 175.127 170.389 174.133 169.289 C 173.206 168.264,172.927 168.034,172.927 168.295 M186.802 182.847 C 186.802 182.905,187.297 183.400,187.902 183.947 L 189.002 184.941 188.008 183.841 C 187.081 182.816,186.802 182.586,186.802 182.847 " stroke="none" fill="#08ad9c" fill-rule="evenodd"></path></g></svg>